<svg width="25" height="21" viewBox="0 0 25 21" fill="none" xmlns="http://www.w3.org/2000/svg">
<path fill-rule="evenodd" clip-rule="evenodd" d="M2 10.5001C2 10.3343 2.07902 10.1753 2.21967 10.0581C2.36032 9.94091 2.55109 9.87506 2.75 9.87506H20.4395L15.719 5.94256C15.5782 5.8252 15.4991 5.66603 15.4991 5.50006C15.4991 5.33409 15.5782 5.17492 15.719 5.05756C15.8598 4.9402 16.0508 4.87427 16.25 4.87427C16.4492 4.87427 16.6402 4.9402 16.781 5.05756L22.781 10.0576C22.8508 10.1156 22.9063 10.1846 22.9441 10.2605C22.9819 10.3364 23.0013 10.4178 23.0013 10.5001C23.0013 10.5823 22.9819 10.6637 22.9441 10.7396C22.9063 10.8155 22.8508 10.8845 22.781 10.9426L16.781 15.9426C16.6402 16.0599 16.4492 16.1258 16.25 16.1258C16.0508 16.1258 15.8598 16.0599 15.719 15.9426C15.5782 15.8252 15.4991 15.666 15.4991 15.5001C15.4991 15.3341 15.5782 15.1749 15.719 15.0576L20.4395 11.1251H2.75C2.55109 11.1251 2.36032 11.0592 2.21967 10.942C2.07902 10.8248 2 10.6658 2 10.5001Z" fill="#1E1E1E"/>
</svg>
